<svg width="216" height="45" viewBox="0 0 216 45" fill="none" xmlns="http://www.w3.org/2000/svg">
<path d="M201.834 25.6304C199.057 26.3959 197.223 26.5986 196.076 26.6166C193.755 26.6229 191.744 23.7861 193.637 22.549C197.365 20.0713 199.353 20.2421 206.766 15.5087C210.182 13.3496 210.689 11.6959 212.726 12.5427C220.184 15.6938 212.226 21.2092 212.211 32.6805C212.214 38.7393 205.83 39.3808 203.508 30.215C203.316 29.4746 203.475 29.2594 203.012 29.6534C193.869 37.3724 180.586 40.4488 168.309 41.3674C106.308 45.9809 36.5999 -14.4759 -42.4414 22.1685C-46.3371 23.9914 -50.0163 26.1352 -53.1207 29.0135C-59.6957 28.3817 -35.1664 7.60988 4.26248 5.64915C66.8834 2.53002 130.479 48.7217 183.94 34.78C192.531 32.5549 201.475 26.7598 201.834 25.6304Z" fill="url(#paint0_linear)"/>
<defs>
<linearGradient id="paint0_linear" x1="208.207" y1="11.2996" x2="-5.75626" y2="8.22982" gradientUnits="userSpaceOnUse">
<stop stop-color="#9730C2"/>
<stop offset="1" stop-color="#EAFAFF"/>
</linearGradient>
</defs>
</svg>
